<svg height="512" viewBox="0 0 60 56" width="512" xmlns="http://www.w3.org/2000/svg"><g id="040---Hair-Cutting" transform="translate(0 -1)"><path id="Shape" d="m49.87 27.29c3.54 2.13 7-.53 5.88-4.23-.71-2.28-3.32-4.3-5.69-3.86-1.3263906.2357668-2.399731 1.2118843-2.76 2.51-.4378539 2.2197827.5984928 4.4699051 2.57 5.58zm-.64-5.06c.3-1.15 2-1.72 3.73 0 .768415.668737 1.1449846 1.6817093 1 2.69-.19 1-1.46 1.58-3 .64-1.208836-.6464016-1.8961028-1.9692909-1.73-3.33z"/><path id="Shape" d="m57.83 29.87c5-5 .77-14.23-6.63-14.67-2.8639483-.2400748-5.6095099 1.1930694-7.05 3.68l-3.31-.31-1.19-12.71c-.1293415-1.4191599-.8174646-2.72871453-1.9128267-3.64026589-1.0953621-.91155135-2.5081292-1.3503403-3.9271733-1.21973411-.77.08-1.21 0-1.55.44-.1668581.20473262-.2459463.46716195-.22.73l1.47 15.7-3-.29c.69-2.57 1.19-5.53.43-7-.6824218-1.14628758-1.6286515-2.11308746-2.76-2.82.2773625-1.6608801.2229827-3.36025095-.16-5-.0972865-.38250997-.4104602-.67201426-.7994219-.7390021-.3889616-.06698784-.7809384.10107386-1.0005781.4290021-1.69 2.46-10.32 1.55-15.22 1.55-5.16 0-8 2.84-8 8 .07675597 2.2438806.37486862 4.4747011.89 6.66-.66147429.9563407-.97555927 2.1103383-.89 3.27 0 4.38 2.66 5.6 4 5.94.65211246 2.5044553 1.96040931 4.7896599 3.79 6.62-.2151089 1.8947886-.6965217 3.7497429-1.43 5.51-2.44869138-.0980269-4.83146982.8067307-6.59798133 2.5052994-1.76651151 1.6985688-2.76398001 4.0440487-2.76201867 6.4947006v6c0 1.1045695.8954305 2 2 2h30c1.1045695 0 2-.8954305 2-2v-6c.0019613-2.4506519-.9955072-4.7961318-2.7620187-6.4947006-1.7665115-1.6985687-4.1492899-2.6033263-6.5979813-2.5052994-.7380403-1.7704437-1.226056-3.6350004-1.45-5.54 2-1.94 3.87-5.21 4.49-9.85l6.52.61.31 3.31c-4.52 2.57-5 9-.92 13.06 3.41 3.41 8.76 3.76 11.91.62 4.07-4.08 2.14-11.54-3.75-14l-.22-2.3 2.3.21c2.46 5.88 9.93 7.88 14 3.75zm-28.72-18.42c.39.78.12 3.09-.68 6h-.47c.0050365-2.2666276-.5956825-4.4934307-1.74-6.45.4902511-.3608621.8991043-.820822 1.2-1.35.68319.4750069 1.2589596 1.0882526 1.69 1.8zm-18.11-5.45c5.27 0 11.91.77 15.29-1.08.2122209 1.41035083-.0666885 2.85079392-.79 4.08-.6285434.7095853-1.5554787 1.0803594-2.5 1-5.41 0-16.4-3-17 8.09l-.19-.09c-1.47-6.62-1.61-12 5.19-12zm-5.64 14c.24035274.0140499.47065638.1012861.66.25.0123411 1.7479217.15271678 3.4925909.42 5.22-1.98-1.38-1.44-5.12-1.08-5.47zm16 15.86c.2681945 1.6727945.7348192 3.3076595 1.39 4.87l-5.77 5-5.77-5c.6545101-1.5591151 1.1211253-3.19059 1.39-4.86 2.7299043 1.5212799 6.0535681 1.5174944 8.78-.01zm10.64 13.14v6h-4v-4c0-.5522847-.4477153-1-1-1s-1 .4477153-1 1v4h-18v-4c0-.5522847-.44771525-1-1-1s-1 .4477153-1 1v4h-4v-6c0-3.8659932 3.13400675-7 7-7h.63l6.72 5.76c.374224.3200877.925776.3200877 1.3 0l6.72-5.76h.63c3.8659932 0 7 3.1340068 7 7zm-10.52-15.66c-2.5871654 2.2257617-6.4128346 2.2257617-9 0-1.8857599-1.8022695-3.19432254-4.1235761-3.76-6.67-.54370507-2.5190074-.78540789-5.0938138-.72-7.67 0-7.33 4.41-7.73 11.6-7.18 1.5796706.2107176 3.1803294.2107176 4.76 0 1.037963 1.5977681 1.6062155 3.4549833 1.64 5.36l-8.14-.77c-.2654479-.0249745-.5298782.0570888-.7345475.2279595-.2046694.1708707-.3326289.416399-.3554525.6820405l-.08.86c-.2786941 2.9281199 1.86295 5.5302846 4.79 5.82l4.21.4c-.45 3.25-1.76 6.86-4.21 8.94zm.19-11.34c-1.7861267-.1792942-3.111093-1.7383379-3-3.53l15.03 1.44.3 3.29c-11.44-1.08 5.65.51-12.33-1.2zm22.41 18.79c-2.33 2.34-6.4 2.06-9.07-.61-3.32-3.32-2.79-8.48.99-10.18.3898566-.1733387.6267984-.5749349.59-1l-2.47-26c1.7934288-.11641487 3.3556732 1.21127153 3.53 3l2.16 23c.0390938.3926873.305472.7256601.68.85 4.87 1.66 6.82 7.72 3.59 10.94zm-3.08-20.19 3.61.34c.4250651.0367984.8266613-.2001434 1-.59.9511078-2.1022801 3.1328971-3.367959 5.43-3.15 5.66.33 9.15 7.44 5.34 11.26-3.22 3.21-9.27 1.3-10.93-3.59-.1243399-.374528-.4573127-.6409062-.85-.68l-3.3-.31z"/><path id="Shape" d="m38 22.38c.2489255-.2487776.3234538-.6230206.1888247-.9481809-.1346292-.3251602-.4518955-.5371848-.8038247-.5371848s-.6691955.2120246-.8038247.5371848c-.1346291.3251603-.0601008.6994033.1888247.9481809.3397143.3395123.8902857.3395123 1.23 0z"/><path id="Shape" d="m35 34.1c-.81 3 2 6.33 5.16 6.33 3.52 0 4.8-4.29 1.92-7.21s-6.34-1.83-7.08.88zm6.62 3.22c-.19 1-1.47 1.58-3 .64s-2.29-3.2-1.21-4.05c1.59-1.29 4.67 1.09 4.23 3.41z"/></g></svg>