<?xml version="1.0"?>
<svg xmlns="http://www.w3.org/2000/svg" id="Outline" viewBox="0 0 64 64" width="512" height="512"><title>Smile icon</title><desc>Smile icon for website, application, printing, document, poster design, etc.</desc><metadata><?xpacket begin="﻿" id="W5M0MpCehiHzreSzNTczkc9d"?><x:xmpmeta xmlns:x="adobe:ns:meta/" x:xmptk="Adobe XMP Core 5.6-c145 79.163499, 2018/08/13-16:40:22        "><rdf:RDF xmlns:rdf="http://www.w3.org/1999/02/22-rdf-syntax-ns#"><rdf:Description xmlns:dc="http://purl.org/dc/elements/1.1/" rdf:about=""><dc:title><rdf:Alt><rdf:li xml:lang="x-default">Smile icon</rdf:li></rdf:Alt></dc:title><dc:description><rdf:Alt><rdf:li xml:lang="x-default">Smile icon for website, application, printing, document, poster design, etc.</rdf:li></rdf:Alt></dc:description><dc:subject><rdf:Bag><rdf:li xml:lang="x-default">Smile</rdf:li><rdf:li>woman</rdf:li><rdf:li>face</rdf:li><rdf:li>happy</rdf:li><rdf:li>avatar</rdf:li><rdf:li>people</rdf:li><rdf:li>female</rdf:li></rdf:Bag></dc:subject></rdf:Description></rdf:RDF></x:xmpmeta><?xpacket end="w"?></metadata><path d="M22,36a10,10,0,0,0,20,0,1,1,0,0,0-1-1H23A1,1,0,0,0,22,36Zm17.94,1a8.28,8.28,0,0,1-.78,2.55A8,8,0,0,1,25.79,41h9.75a1,1,0,0,0,0-2H24.59a8.33,8.33,0,0,1-.53-2Z"/><path d="M36.24,28.17a4,4,0,0,1,5.66,0,1,1,0,0,0,1.41,0,1,1,0,0,0,0-1.41,6,6,0,0,0-8.48,0,1,1,0,1,0,1.41,1.41Z"/><path d="M20.83,26.76a1,1,0,1,0,1.41,1.41,4,4,0,0,1,5.66,0,1,1,0,0,0,1.41,0,1,1,0,0,0,0-1.41A6,6,0,0,0,20.83,26.76Z"/><path d="M10,52a1,1,0,0,0,1-1V25a21,21,0,0,1,42,0V51a1,1,0,0,0,2,0V25A23,23,0,0,0,9,25V51A1,1,0,0,0,10,52Z"/><path d="M56,55H42V48.47A16,16,0,0,0,48,36V19a1,1,0,0,0-1-1H41.41l-3.7-3.71a1,1,0,0,0-1.42,0L32.59,18h-5.4a1,1,0,1,0,0,2H33a1,1,0,0,0,.71-.29L37,16.41l3.29,3.3A1,1,0,0,0,41,20h5V36a14,14,0,0,1-28,0V20h3.54a1,1,0,0,0,0-2H17a1,1,0,0,0-1,1V36a16,16,0,0,0,6,12.47V55H8a6,6,0,0,0-6,6,1,1,0,0,0,2,0,4,4,0,0,1,4-4H23a1,1,0,0,0,1-1V49.84a15.89,15.89,0,0,0,16,0V56a1,1,0,0,0,1,1H56a4,4,0,0,1,4,4,1,1,0,0,0,2,0A6,6,0,0,0,56,55Z"/></svg>
